<?xml version="1.0" encoding="utf-8"?>
<!-- Generator: Adobe Illustrator 24.3.0, SVG Export Plug-In . SVG Version: 6.00 Build 0)  -->
<svg version="1.1" id="Livello_1" xmlns="http://www.w3.org/2000/svg" xmlns:xlink="http://www.w3.org/1999/xlink" x="0px" y="0px"
	 viewBox="0 0 16 16" style="enable-background:new 0 0 16 16;" xml:space="preserve">
<style type="text/css">
	.st0{fill:#B8B8B8;}
</style>
<path class="st0" d="M8,0C3.59,0,0,3.59,0,8s3.59,8,8,8s8-3.59,8-8S12.41,0,8,0z M10.22,4.75c0,0.07-0.05,0.12-0.12,0.12H9.14
	c-0.24,0-0.43,0.19-0.43,0.43V6.3h1.37c0.07,0,0.13,0.06,0.12,0.13l-0.12,1.42c-0.01,0.06-0.06,0.11-0.12,0.11H8.71v4.71
	c0,0.07-0.05,0.12-0.12,0.12H6.87c-0.07,0-0.12-0.05-0.12-0.12V8.05V7.97H5.89c-0.07,0-0.12-0.05-0.12-0.12V6.43
	c0-0.07,0.05-0.12,0.12-0.12h0.86V4.93c0-0.95,0.77-1.73,1.73-1.73h1.63c0.07,0,0.12,0.05,0.12,0.12
	C10.22,3.33,10.22,4.75,10.22,4.75z"/>
</svg>
