<?xml version="1.0" encoding="utf-8"?>
<!-- Generator: Adobe Illustrator 24.3.0, SVG Export Plug-In . SVG Version: 6.00 Build 0)  -->
<svg version="1.1" id="Livello_1" xmlns="http://www.w3.org/2000/svg" xmlns:xlink="http://www.w3.org/1999/xlink" x="0px" y="0px"
	 viewBox="0 0 24 24" style="enable-background:new 0 0 24 24;" xml:space="preserve">
<style type="text/css">
	.st0{fill:#B8B8B8;}
</style>
<path class="st0" d="M12,0C5.38,0,0,5.38,0,12s5.38,12,12,12s12-5.38,12-12S18.62,0,12,0z M15.33,7.12c0,0.1-0.08,0.18-0.18,0.18
	h-1.44c-0.36,0-0.64,0.28-0.64,0.64v1.51h2.05c0.11,0,0.19,0.09,0.18,0.2l-0.18,2.13c-0.01,0.09-0.09,0.17-0.18,0.17h-1.87v7.07
	c0,0.1-0.08,0.18-0.18,0.18h-2.58c-0.1,0-0.18-0.08-0.18-0.18v-6.95v-0.12H8.83c-0.1,0-0.18-0.08-0.18-0.18V9.64
	c0-0.1,0.08-0.18,0.18-0.18h1.29V7.4c0-1.43,1.16-2.59,2.59-2.59h2.44c0.1,0,0.18,0.08,0.18,0.18C15.33,5,15.33,7.12,15.33,7.12z"/>
</svg>
