<?xml version="1.0" encoding="utf-8"?>
<!-- Generator: Adobe Illustrator 24.3.0, SVG Export Plug-In . SVG Version: 6.00 Build 0)  -->
<svg version="1.1" id="Livello_1" xmlns="http://www.w3.org/2000/svg" xmlns:xlink="http://www.w3.org/1999/xlink" x="0px" y="0px"
	 viewBox="0 0 33 33" style="enable-background:new 0 0 33 33;" xml:space="preserve">
<style type="text/css">
	.st0{fill:#B8B8B8;}
</style>
<path class="st0" d="M16.5,0C7.4,0,0,7.4,0,16.5C0,25.6,7.4,33,16.5,33C25.6,33,33,25.6,33,16.5C33,7.4,25.6,0,16.5,0z M21.08,9.79
	c0,0.14-0.11,0.25-0.25,0.25h-1.98c-0.49,0-0.88,0.39-0.88,0.88V13h2.82c0.15,0,0.26,0.12,0.25,0.27l-0.25,2.93
	c-0.01,0.13-0.12,0.23-0.25,0.23h-2.57v9.72c0,0.14-0.11,0.25-0.25,0.25h-3.55c-0.14,0-0.25-0.11-0.25-0.25v-9.56v-0.16h-1.78
	c-0.14,0-0.25-0.11-0.25-0.25v-2.93c0-0.14,0.11-0.25,0.25-0.25h1.78v-2.82c0-1.97,1.6-3.56,3.56-3.56h3.35
	c0.14,0,0.25,0.11,0.25,0.25V9.79z"/>
</svg>
