<?xml version="1.0" encoding="utf-8"?>
<!-- Generator: Adobe Illustrator 24.3.0, SVG Export Plug-In . SVG Version: 6.00 Build 0)  -->
<svg version="1.1" id="Livello_1" xmlns="http://www.w3.org/2000/svg" xmlns:xlink="http://www.w3.org/1999/xlink" x="0px" y="0px"
	 viewBox="0 0 33 33" style="enable-background:new 0 0 33 33;" xml:space="preserve">
<style type="text/css">
	.st0{fill:#B8B8B8;}
</style>
<path class="st0" d="M16.5,0C7.39,0,0,7.39,0,16.5S7.39,33,16.5,33S33,25.61,33,16.5S25.61,0,16.5,0z M18.06,20.84
	c-1.71,2.41-5.14,3.11-7.82,2.08c-2.69-1.02-4.59-3.86-4.36-6.76c0.06-3.54,3.31-6.64,6.86-6.52c1.7-0.08,3.29,0.66,4.59,1.7
	c-0.55,0.63-1.13,1.24-1.74,1.81c-1.56-1.08-3.78-1.39-5.35-0.14c-2.24,1.55-2.34,5.2-0.19,6.86c2.09,1.9,6.04,0.96,6.62-1.95
	c-1.31-0.02-2.62,0-3.93-0.04c0-0.78-0.01-1.56,0-2.34c2.19-0.01,4.38-0.01,6.57,0.01C19.43,17.36,19.19,19.32,18.06,20.84z
	 M27.5,17.47c-0.65,0.01-1.31,0.01-1.96,0.02c-0.01,0.66-0.01,1.31-0.01,1.96c-0.65,0-1.3,0-1.96,0c-0.01-0.65-0.01-1.31-0.01-1.96
	c-0.65-0.01-1.31-0.01-1.96-0.02c0-0.65,0-1.3,0-1.95c0.65-0.01,1.31-0.01,1.96-0.01c0-0.66,0.01-1.31,0.02-1.96
	c0.65,0,1.3,0,1.95,0c0,0.65,0.01,1.31,0.01,1.96c0.65,0.01,1.31,0.01,1.96,0.01C27.5,16.17,27.5,16.82,27.5,17.47z"/>
</svg>
