<?xml version="1.0" encoding="utf-8"?>
<!-- Generator: Adobe Illustrator 24.3.0, SVG Export Plug-In . SVG Version: 6.00 Build 0)  -->
<svg version="1.1" id="Livello_1" xmlns="http://www.w3.org/2000/svg" xmlns:xlink="http://www.w3.org/1999/xlink" x="0px" y="0px"
	 viewBox="0 0 24 24" style="enable-background:new 0 0 24 24;" xml:space="preserve">
<style type="text/css">
	.st0{fill:#B8B8B8;}
</style>
<path class="st0" d="M12,0C5.37,0,0,5.37,0,12s5.37,12,12,12s12-5.37,12-12S18.63,0,12,0z M13.13,15.16
	c-1.24,1.75-3.74,2.26-5.69,1.51c-1.96-0.74-3.34-2.81-3.17-4.92c0.04-2.57,2.41-4.83,4.99-4.74c1.24-0.06,2.39,0.48,3.34,1.24
	c-0.4,0.46-0.82,0.9-1.27,1.32c-1.13-0.79-2.75-1.01-3.89-0.1c-1.63,1.13-1.7,3.78-0.14,4.99c1.52,1.38,4.39,0.7,4.81-1.42
	c-0.95-0.01-1.91,0-2.86-0.03c0-0.57-0.01-1.13,0-1.7c1.59-0.01,3.19-0.01,4.78,0.01C14.13,12.63,13.96,14.05,13.13,15.16z
	 M20,12.71c-0.47,0.01-0.95,0.01-1.43,0.01c-0.01,0.48-0.01,0.95-0.01,1.43c-0.47,0-0.95,0-1.43,0c-0.01-0.47-0.01-0.95-0.01-1.43
	c-0.47-0.01-0.95-0.01-1.43-0.01c0-0.47,0-0.95,0-1.42c0.47-0.01,0.95-0.01,1.43-0.01c0-0.48,0.01-0.95,0.01-1.43
	c0.47,0,0.95,0,1.42,0c0,0.47,0.01,0.95,0.01,1.43c0.47,0.01,0.95,0.01,1.43,0.01C20,11.76,20,12.23,20,12.71z"/>
</svg>
