<?xml version="1.0" encoding="utf-8"?>
<!-- Generator: Adobe Illustrator 24.3.0, SVG Export Plug-In . SVG Version: 6.00 Build 0)  -->
<svg version="1.1" id="Livello_1" xmlns="http://www.w3.org/2000/svg" xmlns:xlink="http://www.w3.org/1999/xlink" x="0px" y="0px"
	 viewBox="0 0 16 16" style="enable-background:new 0 0 16 16;" xml:space="preserve">
<style type="text/css">
	.st0{fill:#B8B8B8;}
</style>
<path class="st0" d="M8,0C3.58,0,0,3.58,0,8s3.58,8,8,8s8-3.58,8-8S12.42,0,8,0z M8.76,10.1c-0.83,1.17-2.49,1.51-3.79,1.01
	c-1.3-0.49-2.23-1.87-2.11-3.28c0.03-1.72,1.6-3.22,3.33-3.16C7,4.64,7.77,4.99,8.4,5.5C8.14,5.8,7.85,6.1,7.56,6.38
	C6.8,5.85,5.73,5.7,4.96,6.31C3.88,7.06,3.83,8.83,4.87,9.63c1.01,0.92,2.93,0.47,3.21-0.95c-0.64-0.01-1.27,0-1.91-0.02
	c0-0.38,0-0.76,0-1.13c1.06,0,2.12,0,3.19,0C9.42,8.42,9.3,9.37,8.76,10.1z M13.33,8.47c-0.32,0-0.64,0-0.95,0.01
	c0,0.32,0,0.64,0,0.95c-0.32,0-0.63,0-0.95,0c0-0.32,0-0.64,0-0.95c-0.32,0-0.64,0-0.95-0.01c0-0.32,0-0.63,0-0.95
	c0.32,0,0.64,0,0.95,0c0-0.32,0-0.64,0.01-0.95c0.32,0,0.63,0,0.95,0c0,0.32,0,0.64,0,0.95c0.32,0,0.64,0,0.95,0
	C13.33,7.84,13.33,8.16,13.33,8.47z"/>
</svg>
