<?xml version="1.0" encoding="utf-8"?>
<!-- Generator: Adobe Illustrator 24.3.0, SVG Export Plug-In . SVG Version: 6.00 Build 0)  -->
<svg version="1.1" id="Livello_1" xmlns="http://www.w3.org/2000/svg" xmlns:xlink="http://www.w3.org/1999/xlink" x="0px" y="0px"
	 viewBox="0 0 33 33" style="enable-background:new 0 0 33 33;" xml:space="preserve">
<style type="text/css">
	.st0{fill:#B8B8B8;}
</style>
<path class="st0" d="M18.14,14.6c0.01-0.01,0.02-0.02,0.02-0.04v0.04H18.14z M33,16.5C33,25.6,25.6,33,16.5,33C7.4,33,0,25.6,0,16.5
	C0,7.4,7.4,0,16.5,0C25.6,0,33,7.4,33,16.5z M12.37,13.24c0-0.15-0.12-0.28-0.28-0.28H8.92c-0.15,0-0.28,0.12-0.28,0.28v10.67
	c0,0.15,0.12,0.28,0.28,0.28h3.18c0.15,0,0.28-0.12,0.28-0.28V13.24z M12.39,9.54c0-1.1-0.89-2-2-2c-1.1,0-2,0.89-2,2s0.89,2,2,2
	C11.5,11.54,12.39,10.65,12.39,9.54z M25.83,17.76c0-3.45-1.84-5.05-4.3-5.05c-1.98,0-2.87,1.09-3.36,1.85v-1.31
	c0-0.15-0.12-0.28-0.28-0.28h-3.17c-0.15,0-0.28,0.12-0.28,0.28c0.03,1.74,0,9.14-0.01,10.67c0,0.15,0.12,0.28,0.28,0.28h3.18
	c0.15,0,0.28-0.12,0.28-0.28v-5.99c0-0.34,0.03-0.67,0.12-0.91c0.27-0.67,0.88-1.36,1.91-1.36c1.35,0,1.89,1.03,1.89,2.54v5.73
	c0,0.15,0.12,0.28,0.28,0.28h3.18c0.15,0,0.28-0.12,0.28-0.28V17.76z"/>
</svg>
