<?xml version="1.0" encoding="utf-8"?>
<!-- Generator: Adobe Illustrator 24.3.0, SVG Export Plug-In . SVG Version: 6.00 Build 0)  -->
<svg version="1.1" id="Livello_1" xmlns="http://www.w3.org/2000/svg" xmlns:xlink="http://www.w3.org/1999/xlink" x="0px" y="0px"
	 viewBox="0 0 16 16" style="enable-background:new 0 0 16 16;" xml:space="preserve">
<style type="text/css">
	.st0{fill:#B8B8B8;}
</style>
<path class="st0" d="M8.8,7.08c0,0,0.01-0.01,0.01-0.02L8.8,7.08L8.8,7.08z M16,8c0,4.41-3.59,8-8,8s-8-3.59-8-8s3.59-8,8-8
	S16,3.59,16,8z M6,6.42c0-0.07-0.06-0.14-0.14-0.14H4.32c-0.07,0-0.14,0.06-0.14,0.14v5.17c0,0.07,0.06,0.14,0.14,0.14h1.54
	c0.07,0,0.14-0.06,0.14-0.14L6,6.42L6,6.42z M6.01,4.63c0-0.53-0.43-0.97-0.97-0.97c-0.53,0-0.97,0.43-0.97,0.97S4.5,5.6,5.04,5.6
	S6.01,5.16,6.01,4.63z M12.52,8.61c0-1.67-0.89-2.45-2.08-2.45c-0.96,0-1.39,0.53-1.63,0.9V6.42c0-0.07-0.06-0.14-0.14-0.14H7.14
	C7.06,6.29,7,6.35,7,6.42c0.01,0.84,0,4.43,0,5.17c0,0.07,0.06,0.14,0.14,0.14h1.54c0.07,0,0.14-0.06,0.14-0.14v-2.9
	c0-0.16,0.01-0.32,0.06-0.44C9,7.93,9.29,7.59,9.79,7.59c0.65,0,0.92,0.5,0.92,1.23v2.78c0,0.07,0.06,0.14,0.14,0.14h1.54
	c0.07,0,0.14-0.06,0.14-0.14V8.61z"/>
</svg>
