<?xml version="1.0" encoding="utf-8"?>
<!-- Generator: Adobe Illustrator 24.3.0, SVG Export Plug-In . SVG Version: 6.00 Build 0)  -->
<svg version="1.1" id="Livello_1" xmlns="http://www.w3.org/2000/svg" xmlns:xlink="http://www.w3.org/1999/xlink" x="0px" y="0px"
	 viewBox="0 0 24 24" style="enable-background:new 0 0 24 24;" xml:space="preserve">
<style type="text/css">
	.st0{fill:#B8B8B8;}
</style>
<path class="st0" d="M13.19,10.62c0.01-0.01,0.01-0.01,0.01-0.03v0.03H13.19z M24,12c0,6.62-5.38,12-12,12S0,18.62,0,12S5.38,0,12,0
	S24,5.38,24,12z M9,9.63c0-0.11-0.09-0.2-0.2-0.2H6.49c-0.11,0-0.2,0.09-0.2,0.2v7.76c0,0.11,0.09,0.2,0.2,0.2H8.8
	c0.11,0,0.2-0.09,0.2-0.2L9,9.63L9,9.63z M9.01,6.94c0-0.8-0.65-1.45-1.45-1.45c-0.8,0-1.45,0.65-1.45,1.45s0.65,1.45,1.45,1.45
	S9.01,7.75,9.01,6.94z M18.79,12.92c0-2.51-1.34-3.67-3.13-3.67c-1.44,0-2.09,0.79-2.44,1.35V9.64c0-0.11-0.09-0.2-0.2-0.2h-2.31
	c-0.11,0-0.2,0.09-0.2,0.2c0.02,1.27,0,6.65-0.01,7.76c0,0.11,0.09,0.2,0.2,0.2h2.31c0.11,0,0.2-0.09,0.2-0.2v-4.36
	c0-0.25,0.02-0.49,0.09-0.66c0.2-0.49,0.64-0.99,1.39-0.99c0.98,0,1.37,0.75,1.37,1.85v4.17c0,0.11,0.09,0.2,0.2,0.2h2.31
	c0.11,0,0.2-0.09,0.2-0.2V12.92z"/>
</svg>
