<?xml version="1.0" encoding="utf-8"?>
<!-- Generator: Adobe Illustrator 24.3.0, SVG Export Plug-In . SVG Version: 6.00 Build 0)  -->
<svg version="1.1" id="Livello_1" xmlns="http://www.w3.org/2000/svg" xmlns:xlink="http://www.w3.org/1999/xlink" x="0px" y="0px"
	 viewBox="0 0 24 24" style="enable-background:new 0 0 24 24;" xml:space="preserve">
<style type="text/css">
	.st0{fill:#B8B8B8;}
</style>
<path class="st0" d="M12,0C5.38,0,0,5.38,0,12s5.38,12,12,12s12-5.38,12-12S18.62,0,12,0z M18.95,7.64c0,0.04,0.01,0.12-0.07,0.23
	c-0.33,0.44-0.68,0.84-1.11,1.16c-0.07,0.05-0.17,0.09-0.17,0.19c0,2.31-0.59,4.62-2.28,6.29c-2.15,2.13-5.37,2.71-8.22,1.92
	c-0.55-0.15-1.08-0.36-1.59-0.63C5.35,16.7,5.19,16.6,5.03,16.5c-0.04-0.04-0.07-0.07-0.04-0.09c0.04-0.01,0.06-0.02,0.19,0
	c0.8,0.08,1.62-0.04,2.38-0.31c0.41-0.15,1.31-0.44,1.56-0.83c0.01-0.01,0.01-0.01,0.02-0.02c-0.1-0.02-0.21-0.02-0.31-0.04
	c-0.78-0.23-1.81-0.61-2.29-1.92c-0.03-0.08,0-0.12,0.08-0.1c0.64,0.05,0.87,0.01,1.09-0.04c-0.12-0.02-0.25-0.07-0.37-0.12
	c-0.97-0.37-1.69-1.32-1.83-2.36c-0.01-0.12-0.02-0.22-0.02-0.33c0.01-0.08,0.04-0.1,0.11-0.06c0.5,0.26,1.07,0.32,1.11,0.31
	c-0.12-0.09-0.24-0.2-0.36-0.31c-0.85-0.8-1.18-2.44-0.5-3.45c0.05-0.08,0.09-0.08,0.16-0.01c1.55,1.77,3.46,2.59,5.77,2.94
	c0.06,0.01,0.07,0,0.06-0.07c-0.06-0.41-0.07-0.8,0.03-1.21c0.1-0.41,0.3-0.81,0.57-1.14c0.26-0.32,0.59-0.59,0.95-0.78
	c0.36-0.19,0.77-0.31,1.19-0.33c0.42-0.03,0.85,0.04,1.24,0.2c0.3,0.12,0.57,0.29,0.81,0.49c0.05,0.04,0.09,0.09,0.15,0.15
	c0.03,0.03,0.07,0.04,0.12,0.03c0.59-0.15,1.14-0.36,1.68-0.64c0.02-0.01,0.04-0.02,0.07-0.01c0.02,0.02,0.01,0.05,0,0.07
	c-0.09,0.31-0.27,0.6-0.47,0.86c-0.13,0.17-0.47,0.58-0.7,0.62c0.48-0.08,0.97-0.2,1.41-0.4c0.06-0.03,0.05-0.04,0.05,0
	C18.95,7.62,18.95,7.63,18.95,7.64z"/>
</svg>
