<?xml version="1.0" encoding="utf-8"?>
<!-- Generator: Adobe Illustrator 24.3.0, SVG Export Plug-In . SVG Version: 6.00 Build 0)  -->
<svg version="1.1" id="Livello_1" xmlns="http://www.w3.org/2000/svg" xmlns:xlink="http://www.w3.org/1999/xlink" x="0px" y="0px"
	 viewBox="0 0 33 33" style="enable-background:new 0 0 33 33;" xml:space="preserve">
<style type="text/css">
	.st0{fill:#B8B8B8;}
</style>
<path class="st0" d="M16.5,0C7.4,0,0,7.4,0,16.5C0,25.6,7.4,33,16.5,33C25.6,33,33,25.6,33,16.5C33,7.4,25.6,0,16.5,0z M26.06,10.5
	c0,0.05,0.01,0.17-0.09,0.31c-0.45,0.61-0.93,1.15-1.53,1.6c-0.09,0.07-0.23,0.13-0.23,0.26c0,3.18-0.81,6.35-3.13,8.65
	c-2.95,2.93-7.38,3.73-11.3,2.64c-0.76-0.21-1.49-0.5-2.19-0.87c-0.23-0.13-0.46-0.26-0.68-0.4c-0.06-0.05-0.1-0.09-0.05-0.12
	c0.05-0.02,0.08-0.03,0.26,0c1.1,0.11,2.23-0.06,3.27-0.42c0.57-0.2,1.8-0.6,2.15-1.14c0.01-0.01,0.02-0.01,0.03-0.03
	c-0.14-0.03-0.29-0.03-0.43-0.06c-1.07-0.31-2.49-0.84-3.15-2.64c-0.04-0.11,0-0.16,0.11-0.14c0.88,0.07,1.19,0.02,1.5-0.05
	c-0.17-0.03-0.35-0.09-0.51-0.16c-1.34-0.51-2.33-1.82-2.51-3.24c-0.02-0.16-0.03-0.3-0.03-0.45c0.01-0.11,0.05-0.14,0.15-0.08
	c0.69,0.36,1.47,0.44,1.53,0.43c-0.17-0.13-0.33-0.28-0.49-0.43c-1.17-1.1-1.62-3.35-0.69-4.75C8.12,9.3,8.17,9.3,8.27,9.4
	c2.13,2.43,4.76,3.56,7.93,4.04c0.08,0.01,0.09,0,0.08-0.09c-0.08-0.56-0.09-1.1,0.04-1.66c0.14-0.57,0.41-1.11,0.78-1.57
	c0.36-0.44,0.81-0.81,1.31-1.07c0.5-0.26,1.06-0.42,1.63-0.46c0.58-0.04,1.17,0.06,1.71,0.28c0.41,0.17,0.78,0.4,1.12,0.68
	c0.07,0.06,0.13,0.13,0.2,0.21c0.04,0.04,0.09,0.06,0.16,0.04c0.81-0.2,1.57-0.49,2.31-0.88c0.03-0.02,0.06-0.03,0.1-0.01
	c0.03,0.03,0.02,0.07,0,0.1c-0.13,0.43-0.37,0.83-0.65,1.18c-0.18,0.23-0.65,0.8-0.96,0.85c0.66-0.11,1.33-0.28,1.94-0.55
	c0.08-0.04,0.07-0.05,0.07,0C26.06,10.48,26.06,10.49,26.06,10.5z"/>
</svg>
