<?xml version="1.0" encoding="utf-8"?>
<!-- Generator: Adobe Illustrator 24.3.0, SVG Export Plug-In . SVG Version: 6.00 Build 0)  -->
<svg version="1.1" id="Livello_1" xmlns="http://www.w3.org/2000/svg" xmlns:xlink="http://www.w3.org/1999/xlink" x="0px" y="0px"
	 viewBox="0 0 16 16" style="enable-background:new 0 0 16 16;" xml:space="preserve">
<style type="text/css">
	.st0{fill:#B8B8B8;}
</style>
<path class="st0" d="M8,0C3.59,0,0,3.59,0,8s3.59,8,8,8s8-3.59,8-8S12.41,0,8,0z M12.63,5.09c0,0.03,0.01,0.08-0.05,0.15
	c-0.22,0.29-0.45,0.56-0.74,0.77c-0.05,0.03-0.11,0.06-0.11,0.13c0,1.54-0.39,3.08-1.52,4.19c-1.43,1.42-3.58,1.81-5.48,1.28
	c-0.37-0.1-0.72-0.24-1.06-0.42c-0.11-0.07-0.21-0.13-0.32-0.2c-0.03-0.03-0.05-0.05-0.03-0.06c0.03-0.01,0.04-0.01,0.13,0
	c0.53,0.05,1.08-0.03,1.59-0.21c0.27-0.1,0.87-0.29,1.04-0.55c0.01-0.01,0.01-0.01,0.01-0.01c-0.07-0.01-0.14-0.01-0.21-0.03
	C5.37,9.99,4.68,9.73,4.36,8.86c-0.02-0.05,0-0.08,0.05-0.07C4.84,8.83,4.99,8.8,5.14,8.77C5.06,8.75,4.97,8.72,4.89,8.69
	C4.25,8.44,3.77,7.81,3.67,7.11C3.67,7.03,3.66,6.97,3.66,6.89c0.01-0.05,0.03-0.07,0.07-0.04c0.33,0.17,0.71,0.21,0.74,0.21
	C4.39,7,4.31,6.93,4.23,6.85C3.67,6.32,3.45,5.23,3.9,4.55C3.93,4.5,3.96,4.5,4.01,4.55c1.03,1.18,2.31,1.73,3.85,1.96
	c0.04,0.01,0.05,0,0.04-0.05C7.85,6.19,7.85,5.93,7.91,5.65c0.07-0.27,0.2-0.54,0.38-0.76C8.47,4.68,8.69,4.5,8.93,4.37
	c0.24-0.13,0.51-0.21,0.79-0.22c0.28-0.02,0.57,0.03,0.83,0.13c0.2,0.08,0.38,0.19,0.54,0.33c0.03,0.03,0.06,0.06,0.1,0.1
	c0.02,0.02,0.05,0.03,0.08,0.02c0.39-0.1,0.76-0.24,1.12-0.43c0.01-0.01,0.03-0.01,0.05-0.01c0.01,0.01,0.01,0.03,0,0.05
	c-0.06,0.21-0.18,0.4-0.31,0.57c-0.09,0.11-0.31,0.39-0.47,0.41c0.32-0.05,0.65-0.13,0.94-0.27c0.04-0.02,0.03-0.03,0.03,0
	C12.63,5.08,12.63,5.09,12.63,5.09z"/>
</svg>
